<svg xmlns="http://www.w3.org/2000/svg" width="400" height="83.283" viewBox="0 0 400 83.283"><defs><style>.a{fill:#fff;}</style></defs><g transform="translate(-434.298 -689.18)"><path class="a" d="M571.718,738.846a7.206,7.206,0,0,1,5.043,3.428,1.009,1.009,0,0,0-1.531.253c-.568.979,1.526,3.429,2.458,3.692A1.814,1.814,0,0,0,575.3,747.3a7.355,7.355,0,0,0-.275,4.064s-2.559-1.546-4.5.049c0,0,.562-2.7-.848-3.067s-2.054,2.73.732,4.3a4.636,4.636,0,0,0-2.017,3.639,5.784,5.784,0,0,1-2.825-2.181,5.9,5.9,0,0,1-3.61,3.975s.292-1.21-1.181-.545a15.26,15.26,0,0,1-6.959.929s1.807-3.288,1.386-3.95-1.336-.319-1.336-.319-.355-.964,1.9-2.378,4.1-3.855,3.436-5.379-2.941-1.285-3.835.6a8.566,8.566,0,0,0-.543,4.276s-4.561,1.121-6.027,3.34a4.362,4.362,0,0,1-.339-3.415,6.1,6.1,0,0,1-3.573.906s.369-2.345-1.042-1.718a5.8,5.8,0,0,1-3.223.19s.5-.487-.979-.542a18.59,18.59,0,0,1-3.128-.454,19.491,19.491,0,0,0,3.671-2.812c.8-1.052-.389-1.318-.389-1.318s1.859-1.216,1.694-2.179a1.337,1.337,0,0,0-.8-1.146,3.338,3.338,0,0,1,1.667-.966c1.141-.308,1.856-1.551,1.012-2.281s-1.185-.734-1.185-.734.52-.732,2.3-.617a3.272,3.272,0,0,0,2.743-1.219,3.226,3.226,0,0,0,1.91.862,5.522,5.522,0,0,1,2.817,1.094c.9.592,2.983-.054,2.322-1.874s-4.76-1.364-5.546-1.02a1.37,1.37,0,0,0-1.355-.874,3.091,3.091,0,0,0-1.8.383s1-1.176-.054-1.82a3.588,3.588,0,0,1-1.421-1.659,4.733,4.733,0,0,0,2.214-1.338c.642-.9,2.893-1.129,2.893-1.129a3.4,3.4,0,0,1,.173-1.792,3.445,3.445,0,0,0,3.433.247,2.391,2.391,0,0,0,1.445-2.514,3.785,3.785,0,0,0,2.362.552,4.069,4.069,0,0,1,1.829,1.822c.867,1.475,1.56,2.722,3.023,2.865s1.663-1.741.435-2.619a3.839,3.839,0,0,0-1.758-.884s.559-2.445.1-3.34a11.132,11.132,0,0,0,2.5.427,4.631,4.631,0,0,1,2.543,1.262c1.219,1.151,2.55.75,2.753-.385a5.314,5.314,0,0,1,.775,3.325c-.321,1.589.012,2.2.769,2.271s1.086-1.048,1.086-1.048a2.575,2.575,0,0,1,.355,2.594,7.041,7.041,0,0,0-.818,1.924,4.476,4.476,0,0,1-2.577-.011c-1.207-.45-3.311,1.154-2.769,3.435s2.4,3.553,3.809,3.285a2.694,2.694,0,0,0,1.589-1.019A1.481,1.481,0,0,1,571.718,738.846Z" transform="translate(-59.599 -9.81)"/><path class="a" d="M626.382,748.11S597.976,737.1,577.5,741.5c0,0-.13-1.47-1.392-1.619,0,0,9.848-2.694,26.135-1.293,16.866,1.451,27.774,5.556,27.774,5.556Z" transform="translate(-67.161 -13.476)"/><g transform="translate(434.298 689.18)"><path class="a" d="M755.183,757.845l-5.449,17.94h-50.55l2.667-.832a5.723,5.723,0,0,0,4.058-5.584V698.918a5.723,5.723,0,0,0-4.058-5.584l-2.667-.832h23.651l-2.666.832a5.723,5.723,0,0,0-4.058,5.584v70.452a5.723,5.723,0,0,0,4.058,5.584l.927.238h12.058a22.572,22.572,0,0,0,21.217-15.208Z" transform="translate(-528.736 -692.502)"/><path class="a" d="M536.87,769.526c2.2-1.664,6.26-6.3,6.84-11.644L542.2,772.258s-4.174-1.9-10.782.95a31.931,31.931,0,0,1-12.638,2.614c-23.767,0-38.608-18.653-38.608-41.584s14.841-41.584,38.608-41.584a31.451,31.451,0,0,1,12.638,2.732c6.608,2.852,10.782.951,10.782.951l1.507,14.375c-.7-5.583-4.753-9.742-7.42-12a33.187,33.187,0,0,0-17.507-5.346c-16.927,0-28.173,21.5-28.173,41.108s11.246,41.108,28.173,41.108a31.588,31.588,0,0,0,17.739-5.7Z" transform="translate(-480.175 -692.539)"/><path class="a" d="M859.861,757.845l-5.449,17.94H803.863l2.667-.832a5.723,5.723,0,0,0,4.057-5.584V698.918a5.723,5.723,0,0,0-4.057-5.584l-2.667-.832h23.651l-2.666.832a5.723,5.723,0,0,0-4.057,5.584v70.452a5.722,5.722,0,0,0,4.057,5.584l.928.238h12.058a22.571,22.571,0,0,0,21.216-15.208Z" transform="translate(-551.946 -692.502)"/><path class="a" d="M953.358,750.04c8.232,15.445,11.825,21.861,20.754,25.782H960.43c-11.825,0-13.564-14.97-22.375-32.2-2.9-5.7-5.218-7.129-9.971-7.129h-5.1v33.03a5.792,5.792,0,0,0,4.29,5.583l2.666.713H905.475l2.9-.713a5.792,5.792,0,0,0,4.29-5.583V699.071a5.793,5.793,0,0,0-4.29-5.584l-2.782-.832h27.361c20.406,0,25.043,9.742,25.043,21.861,0,11.169-4.057,20.554-21.217,21.742,6.261.951,10.782,2.852,15.884,12.476Zm-5.8-35.4c0-13.782-8.348-21.386-14.608-21.386H923.1v42.771h9.854C939.213,736.021,947.561,728.417,947.561,714.636Z" transform="translate(-574.112 -692.539)"/><g transform="translate(88.982)"><path class="a" d="M660.563,715.481c0-.013-.008-.025-.011-.038l.128.617Z" transform="translate(-610.594 -697.657)"/><path class="a" d="M649.695,759.865a22.572,22.572,0,0,1-21.217,15.207H616.42l-.928-.237a5.724,5.724,0,0,1-4.058-5.584V692.977h11.13a22.692,22.692,0,0,1,21.9,17.307L640.883,692.5H594.508l2.666.832a5.723,5.723,0,0,1,4.057,5.584v70.452a5.723,5.723,0,0,1-4.057,5.584l-2.666.832h50.549l5.449-17.94Z" transform="translate(-594.508 -692.502)"/></g></g></g></svg>